<?xml version="1.0" encoding="utf-8"?>
<!-- Generator: Adobe Illustrator 16.0.0, SVG Export Plug-In . SVG Version: 6.00 Build 0)  -->
<!DOCTYPE svg PUBLIC "-//W3C//DTD SVG 1.1//EN" "http://www.w3.org/Graphics/SVG/1.1/DTD/svg11.dtd">
<svg version="1.1" id="Layer_1" xmlns="http://www.w3.org/2000/svg" xmlns:xlink="http://www.w3.org/1999/xlink" x="0px" y="0px"
	 width="144.829px" height="56.955px" viewBox="0 0 144.829 56.955" enable-background="new 0 0 144.829 56.955"
	 xml:space="preserve">
<path fill="#026937" d="M61.786,32.585c14.895,2.238,30.298,4.549,43.766,4.549c14.066,0,29.665-2.139,39.277-3.887V3.2
	c0-1.76-1.44-3.2-3.201-3.2H3.201C1.44,0,0,1.44,0,3.2v27.565c4.691-1.318,11.628-2.429,21.695-2.429
	C33.478,28.336,47.228,30.4,61.786,32.585"/>
<path fill="#40AE49" d="M105.553,39.421c-13.641,0-29.128-2.324-44.106-4.574c-14.471-2.172-28.139-4.225-39.751-4.225
	c-10.411,0-17.275,1.186-21.694,2.496v20.637c0,1.76,1.439,3.199,3.199,3.199h138.429c1.76,0,3.199-1.439,3.199-3.199v-18.16
	C134.804,37.396,119.155,39.421,105.553,39.421"/>
<path fill="#FFFFFF" d="M41.486,14.98h4.771v6.826c-0.742,0.237-1.497,0.416-2.265,0.537c-0.769,0.122-1.658,0.184-2.669,0.184
	c-2.125,0-3.78-0.633-4.964-1.896c-1.185-1.264-1.775-3.035-1.775-5.313c0-1.459,0.292-2.737,0.878-3.835
	c0.585-1.099,1.429-1.937,2.53-2.517c1.1-0.579,2.39-0.868,3.867-0.868c1.498,0,2.894,0.275,4.187,0.826l-0.634,1.44
	c-1.268-0.538-2.486-0.808-3.657-0.808c-1.709,0-3.043,0.51-4.003,1.526c-0.96,1.018-1.44,2.429-1.44,4.234
	c0,1.895,0.462,3.33,1.388,4.31c0.925,0.98,2.282,1.47,4.074,1.47c0.974,0,1.924-0.112,2.852-0.337v-4.32h-3.139V14.98z"/>
<rect x="50.173" y="7.396" fill="#FFFFFF" width="1.595" height="14.938"/>
<path fill="#FFFFFF" d="M58.766,12.956c-0.845,0-1.518,0.274-2.021,0.825c-0.502,0.551-0.798,1.312-0.888,2.284h5.501
	c0-1.004-0.224-1.773-0.672-2.309C60.237,13.223,59.598,12.956,58.766,12.956 M59.197,22.526c-1.555,0-2.782-0.473-3.682-1.421
	c-0.899-0.947-1.349-2.262-1.349-3.945c0-1.695,0.418-3.044,1.253-4.042c0.836-0.998,1.957-1.497,3.364-1.497
	c1.319,0,2.362,0.434,3.131,1.301c0.768,0.868,1.151,2.012,1.151,3.432v1.008h-7.248c0.032,1.236,0.344,2.173,0.937,2.813
	c0.592,0.64,1.425,0.96,2.501,0.96c1.132,0,2.252-0.236,3.359-0.71v1.421c-0.563,0.243-1.096,0.417-1.599,0.521
	C60.515,22.474,59.907,22.526,59.197,22.526"/>
<path fill="#FFFFFF" d="M72.197,22.335v-6.807c0-0.857-0.195-1.498-0.586-1.92c-0.391-0.423-1.001-0.634-1.833-0.634
	c-1.102,0-1.908,0.297-2.419,0.893c-0.514,0.596-0.769,1.578-0.769,2.947v5.521h-1.594V11.812h1.296l0.259,1.44h0.077
	c0.326-0.519,0.784-0.92,1.373-1.204c0.588-0.285,1.244-0.428,1.968-0.428c1.268,0,2.222,0.306,2.861,0.917
	c0.639,0.61,0.96,1.589,0.96,2.933v6.864H72.197z"/>
<path fill="#FFFFFF" d="M80.253,21.192c1.087,0,1.876-0.296,2.365-0.888c0.49-0.592,0.734-1.548,0.734-2.866v-0.336
	c0-1.491-0.248-2.555-0.744-3.192c-0.496-0.637-1.287-0.954-2.376-0.954c-0.934,0-1.648,0.362-2.145,1.089s-0.745,1.753-0.745,3.077
	c0,1.344,0.247,2.358,0.74,3.043C78.575,20.85,79.299,21.192,80.253,21.192 M83.439,20.924h-0.087
	c-0.735,1.068-1.837,1.603-3.302,1.603c-1.376,0-2.447-0.47-3.211-1.411c-0.766-0.94-1.147-2.278-1.147-4.013
	s0.383-3.082,1.151-4.042c0.768-0.96,1.837-1.439,3.207-1.439c1.427,0,2.521,0.519,3.283,1.555h0.125l-0.067-0.758l-0.039-0.739
	V7.396h1.594v14.938H83.65L83.439,20.924z"/>
<path fill="#FFFFFF" d="M90.41,21.212c0.992,0,1.771-0.272,2.338-0.816c0.566-0.544,0.849-1.306,0.849-2.285v-0.95l-1.593,0.067
	c-1.267,0.045-2.181,0.241-2.741,0.59c-0.56,0.35-0.84,0.893-0.84,1.628c0,0.576,0.174,1.015,0.523,1.315
	C89.295,21.062,89.783,21.212,90.41,21.212 M94.01,22.335l-0.316-1.498h-0.076c-0.525,0.66-1.049,1.105-1.57,1.339
	s-1.173,0.351-1.954,0.351c-1.043,0-1.86-0.269-2.453-0.806c-0.592-0.538-0.888-1.302-0.888-2.295c0-2.125,1.699-3.238,5.098-3.34
	l1.785-0.059v-0.652c0-0.825-0.177-1.436-0.532-1.829c-0.354-0.395-0.923-0.59-1.703-0.59c-0.878,0-1.869,0.269-2.977,0.806
	l-0.49-1.219c0.519-0.281,1.086-0.502,1.704-0.662s1.237-0.241,1.858-0.241c1.254,0,2.184,0.279,2.789,0.836
	c0.604,0.557,0.907,1.449,0.907,2.678v7.182H94.01z"/>
<rect x="98.08" y="7.396" fill="#FFFFFF" width="1.594" height="14.938"/>
<path fill="#FFFFFF" d="M106.673,12.956c-0.845,0-1.518,0.274-2.021,0.825c-0.502,0.551-0.799,1.312-0.889,2.284h5.501
	c0-1.004-0.224-1.773-0.672-2.309C108.145,13.223,107.505,12.956,106.673,12.956 M107.104,22.526c-1.555,0-2.781-0.473-3.681-1.421
	c-0.9-0.947-1.349-2.262-1.349-3.945c0-1.695,0.418-3.044,1.253-4.042s1.957-1.497,3.363-1.497c1.319,0,2.362,0.434,3.131,1.301
	c0.768,0.868,1.151,2.012,1.151,3.432v1.008h-7.248c0.032,1.236,0.345,2.173,0.937,2.813c0.592,0.64,1.426,0.96,2.501,0.96
	c1.132,0,2.253-0.236,3.359-0.71v1.421c-0.562,0.243-1.096,0.417-1.598,0.521C108.422,22.474,107.816,22.526,107.104,22.526"/>
</svg>
